<?xml version="1.0" encoding="utf-8"?>
<!-- Generator: Adobe Illustrator 24.0.2, SVG Export Plug-In . SVG Version: 6.00 Build 0)  -->
<svg version="1.1" id="Layer_1" xmlns="http://www.w3.org/2000/svg" xmlns:xlink="http://www.w3.org/1999/xlink" x="0px" y="0px"
	 viewBox="0 0 299 78" style="enable-background:new 0 0 299 78;" xml:space="preserve">
<style type="text/css">
	.st0{fill:#FFFFFF;}
</style>
<g>
	<path class="st0" d="M0,2.9h15v60.8h29.7v11.5H0V2.9z"/>
	<path class="st0" d="M54.9,2.9h25.9c17.1,0,26,7.1,26,21.5c0,10-5,15.6-12.9,18.5v0.5l17.9,31.7H94.7L80.4,46.7H69.8v28.4h-15V2.9z
		 M79,36.9c8.8,0,12.3-3.9,12.3-11.8c0-7.8-3.6-11.2-12.4-11.2h-9.2v23H79z"/>
	<path class="st0" d="M116.6,40.3v-2.6c0-26.1,15.4-35.9,34.3-35.9c8.3,0,14.1,1.3,18.4,3.6v11.3c-5.2-1.7-9.9-3.2-16.5-3.2
		c-12.3,0-20.2,6.7-20.2,22.9v3.6c0,15.6,5.7,24.5,20.3,24.5c8,0,13-1.9,17-3.7V72c-4.7,2.6-11.3,4.3-20.1,4.3
		C129.3,76.3,116.6,64.6,116.6,40.3z"/>
</g>
</svg>
